<?xml version="1.0" encoding="UTF-8" standalone="no"?>
<svg
   width="37.081089mm"
   height="10.034559mm"
   viewBox="0 0 37.081089 10.034559"
   version="1.1"
   id="scoutid"
   xmlns="http://www.w3.org/2000/svg"
   xmlns:svg="http://www.w3.org/2000/svg">
<g id="scoutid">
  <path
	 style="fill:#fefefe"
	 d="m 25.091173,8.5017583 c -0.33677,-0.031512 -0.325408,-0.020952 -0.195708,-0.181908 0.211201,-0.262098 0.327766,-0.5810167 0.357806,-0.9789476 l 0.01544,-0.2045681 h 0.143894 0.143895 l 0.01127,0.074099 c 0.0062,0.040755 0.01703,0.1416087 0.02407,0.2241202 0.02797,0.3278096 0.175627,0.6955263 0.362203,0.9020202 0.12613,0.1395952 0.138282,0.1318154 -0.261103,0.167165 -0.287909,0.025483 -0.309008,0.025413 -0.60177,-0.00198 z M 4.3276034,8.2745475 C 3.4822613,8.1608292 2.8955738,7.452145 2.8955738,6.5447392 c 0,-0.4011485 -0.012152,-0.3935405 0.6131617,-0.3838767 l 0.4193634,0.00648 0.04421,0.059252 C 4.002504,6.2670637 4.027115,6.3646432 4.0499404,6.534393 4.110437,6.9842985 4.2273088,7.1257441 4.537159,7.1240556 4.8728418,7.1222264 5.1069397,6.8382302 5.0178564,6.5408968 4.984629,6.4299935 4.9505625,6.3882447 4.0225186,5.3210979 2.9677905,4.1082785 2.919834,4.0250924 2.9187695,3.4065159 2.9160078,1.8016685 5.010249,1.151949 5.8925565,2.4839252 6.1513386,2.8745957 6.2774153,3.5956033 6.1197179,3.783016 L 6.0606919,3.853165 H 5.5978485 c -0.5887279,0 -0.5601731,0.01662 -0.5836888,-0.3397329 -0.038028,-0.5762622 -0.4655429,-0.825507 -0.7992949,-0.4659955 -0.306619,0.3302842 -0.2486827,0.4519448 0.7785604,1.634901 1.1956201,1.3768565 1.1841604,1.35836 1.1884392,1.9182019 0.00779,1.0188973 -0.8652371,1.8070548 -1.854261,1.674008 z M 7.9132426,8.2529626 C 7.3472264,8.1339014 6.9247924,7.7835472 6.7260514,7.2683414 6.6115788,6.9715888 6.6084063,6.9039333 6.6161547,4.9247549 l 0.00719,-1.8353832 0.062043,-0.182879 C 7.298172,1.1002128 9.8823332,1.551691 9.9033513,3.4687032 c 0.00448,0.4089707 0.039957,0.3844615 -0.5564437,0.3844615 -0.6049121,0 -0.5758279,0.017075 -0.5917868,-0.3474408 C 8.72887,2.906131 8.1538866,2.6671668 7.8483185,3.1288551 l -0.062189,0.093962 -0.00635,1.7572604 c -0.00713,1.9720594 -0.014229,1.8810994 0.1583553,2.0288248 0.3456838,0.2958925 0.7944569,0.066572 0.8112794,-0.4145586 0.015502,-0.4433651 0.00883,-0.4384004 0.5891615,-0.4384004 0.4326418,0 0.4410644,9.222e-4 0.5039662,0.055181 l 0.063971,0.055181 -0.00409,0.3039153 C 9.887407,7.6847063 8.956306,8.4723705 7.9132426,8.2529626 Z M 11.833093,8.2309799 C 11.257759,8.0779824 10.821572,7.65975 10.643898,7.090735 L 10.590504,6.9197366 V 5.0045541 3.0893717 l 0.06438,-0.1823983 c 0.553984,-1.5695997 2.767821,-1.4901862 3.177987,0.1139989 0.03756,0.1468994 0.04081,0.3065459 0.04081,2.0063816 V 6.874137 l -0.05244,0.1811081 C 13.568291,7.9288269 12.6776,8.455558 11.833093,8.2309799 Z m 0.644545,-1.1678438 c 0.05193,-0.02871 0.125659,-0.096689 0.163835,-0.1510635 l 0.06941,-0.098863 V 5.0293019 3.2453943 l -0.0686,-0.1109625 c -0.184817,-0.2989327 -0.630653,-0.3019399 -0.8268,-0.00558 l -0.06219,0.093962 -0.0064,1.7572604 c -0.0071,1.9720645 -0.01423,1.8810989 0.158359,2.028828 0.159352,0.1363991 0.385027,0.1577824 0.572338,0.05423 z m 3.493618,1.1794477 C 15.359664,8.1079467 14.882525,7.6455235 14.712177,7.0223356 14.67453,6.8846112 14.671667,6.7003639 14.671667,4.4154496 V 1.9567622 l 0.05383,-0.04359 c 0.09061,-0.073379 0.977383,-0.065978 1.04758,0.00874 l 0.04916,0.052332 0.0061,2.4043451 0.0061,2.4043451 0.0633,0.1076931 c 0.220635,0.3753364 0.812985,0.2852409 0.902804,-0.1373151 0.01809,-0.085116 0.02568,-0.8134284 0.02568,-2.4645436 0,-2.2416048 0.0018,-2.3453667 0.0417,-2.381456 0.07003,-0.063378 0.988821,-0.056008 1.053277,0.00845 0.04589,0.04589 0.04614,0.061915 0.0399,2.5364767 l -0.0063,2.490295 -0.05355,0.1595985 c -0.282212,0.8411094 -1.098566,1.3234897 -1.930032,1.1404489 z m 7.991327,-0.041727 c -0.166394,-0.072894 -0.443766,-0.2273219 -0.535795,-0.2983062 -0.04241,-0.032712 -0.03443,-0.035251 0.113999,-0.036293 0.528117,-0.00371 0.941504,-0.2663845 1.084643,-0.6892057 0.02244,-0.066284 0.0492,-0.1201561 0.05947,-0.1197162 0.269501,0.011545 0.285122,0.034339 0.214025,0.3123225 -0.08748,0.3420525 -0.26343,0.6052029 -0.529661,0.7921696 -0.192629,0.135278 -0.187993,0.1348331 -0.406684,0.039029 z m 2.593148,0.028147 C 26.119818,7.9989017 25.70206,7.1256803 26.00608,7.0800897 c 0.05803,-0.0087 0.118618,-0.020851 0.134634,-0.026997 0.01843,-0.00707 0.03513,0.01662 0.04549,0.064534 0.0913,0.422143 0.500705,0.7135846 1.048147,0.7461421 l 0.227998,0.013559 -0.227083,0.1352446 C 26.81788,8.2611592 26.692374,8.3011323 26.555731,8.2290038 Z M 19.639742,8.107606 19.562222,8.030087 V 5.51983 3.009573 h -0.429794 c -0.660095,0 -0.641796,0.017224 -0.641796,-0.6040986 0,-0.4197356 5.58e-4,-0.4245229 0.05596,-0.4799278 l 0.05596,-0.055963 h 1.536048 1.536048 l 0.05527,0.058836 c 0.05458,0.058094 0.05527,0.064415 0.05527,0.5010772 v 0.4422409 l -0.06317,0.063218 -0.06317,0.063218 -0.466929,0.007 -0.466928,0.007 v 2.4732057 c 0,3.0352521 0.07317,2.6997391 -0.588748,2.6997391 H 19.71724 Z m 9.68777,0.031681 C 29.226829,8.098735 29.226824,8.098572 29.233952,4.9398373 l 0.0068,-3.0058897 0.05383,-0.043582 c 0.08545,-0.069192 0.948742,-0.066137 1.03749,0.00367 l 0.06007,0.047254 v 3.0632622 3.0632623 l -0.06007,0.047254 c -0.06505,0.051168 -0.888347,0.071015 -1.004539,0.024216 z m 1.942974,-0.03132 -0.05757,-0.057569 V 5.0086652 1.9669315 l 0.04725,-0.060074 0.04725,-0.060074 h 0.900137 c 1.513694,0 2.021917,0.2692806 2.259118,1.196989 0.05484,0.2144689 0.06318,3.6270719 0.0094,3.8417648 -0.13411,0.535304 -0.504582,0.9614072 -1.005974,1.1570338 -0.26542,0.1035583 -0.277073,0.1046424 -1.224919,0.1139549 l -0.917123,0.00901 z m 1.745387,-1.1116564 c 0.3464,-0.1037837 0.339136,-0.060911 0.339725,-2.0052709 l 5e-4,-1.6550987 -0.05305,-0.1004852 C 33.198184,3.036827 33.108098,2.9992979 32.715838,2.99083 L 32.375707,2.98349 v 2.0194241 2.0194241 h 0.276652 c 0.152159,0 0.31574,-0.011711 0.363514,-0.026024 z M 23.344868,7.4540184 C 22.924812,7.3922468 22.55808,7.0819279 22.299826,6.5697326 c -0.08545,-0.1694698 -0.08244,-0.1830524 0.02281,-0.1030067 0.594433,0.4520999 1.450491,0.3016312 1.93017,-0.3392644 0.05659,-0.075609 0.06888,-0.055515 0.09007,0.1472535 0.01298,0.1241421 0.0095,0.1386898 -0.04818,0.1988394 -0.09138,0.095382 -0.101222,0.217733 -0.02634,0.3274958 0.170379,0.249743 -0.412067,0.7501399 -0.784572,0.6740494 -0.0063,-0.00128 -0.06878,-0.010767 -0.13892,-0.021081 z m 3.763454,-0.00521 c -0.321505,-0.07296 -0.694487,-0.4639972 -0.569689,-0.5972667 0.108738,-0.1161196 0.109073,-0.2603736 8.92e-4,-0.383791 -0.05755,-0.06566 -0.06585,-0.3192357 -0.0123,-0.3757143 0.0036,-0.0038 0.102623,0.089548 0.22004,0.2074427 0.486915,0.4888928 1.145298,0.5762941 1.684074,0.2235629 0.06897,-0.045154 0.137781,-0.090055 0.152916,-0.09978 0.11438,-0.073503 -0.22918,0.4811612 -0.413793,0.668051 -0.306984,0.3107703 -0.694014,0.4410363 -1.062144,0.3574956 z M 22.931614,6.3029351 C 21.950355,6.0650455 21.6247,4.6759422 22.375918,3.9325741 22.826678,3.4865245 23.448727,3.4589237 23.90931,3.8645364 l 0.110273,0.097112 -0.159599,-0.041527 c -0.797091,-0.2074023 -1.52159,0.2484915 -1.556797,0.9796193 -0.03462,0.7188727 0.425723,1.1906512 1.235604,1.2663094 l 0.157603,0.014723 -0.06157,-0.075114 C 23.452478,5.8831903 23.461521,5.6918893 23.658504,5.604755 23.845757,5.521924 24.197708,5.673198 24.11046,5.7990128 23.834392,6.1971096 23.349712,6.4042966 22.931613,6.3029357 Z m 4.504184,0.00297 C 27.113166,6.227661 26.62721,5.82479 26.720243,5.7126913 c 0.139336,-0.1678899 0.514889,-0.1656712 0.591967,0.0035 0.04817,0.1057124 -0.0037,0.2870429 -0.108836,0.3805892 -0.158351,0.14088 0.369345,0.080307 0.699337,-0.080275 1.299015,-0.6321333 0.495597,-2.4648725 -0.918989,-2.0963783 l -0.159433,0.041532 0.09511,-0.084405 c 0.798179,-0.7083217 1.954361,-0.061548 1.954045,1.0931031 -2.34e-4,0.8575547 -0.705823,1.5130353 -1.437648,1.335552 z M 24.66126,6.2430149 C 24.65696,6.2264749 24.63613,6.1411237 24.61507,6.0533445 24.393533,5.1301569 23.133024,4.7733168 23.133024,5.6337889 c 0,0.2353701 -0.304511,-0.098626 -0.390336,-0.4281315 -0.146374,-0.5619674 0.232401,-0.9884401 0.876991,-0.9874255 0.698214,0.0011 1.094522,0.5054773 1.264902,1.6098354 0.0559,0.3623354 0.05273,0.3881642 -0.0499,0.4063538 -0.04702,0.00833 -0.103504,0.020443 -0.125511,0.026909 -0.02227,0.00654 -0.04351,-0.00157 -0.0479,-0.018315 z m 1.350769,-0.00224 -0.105134,-0.02289 0.0099,-0.105069 c 0.129593,-1.3807133 0.691859,-2.053751 1.561572,-1.869217 0.699492,0.1484168 0.888421,1.0033857 0.318342,1.4406089 l -0.08352,0.064057 -0.01377,-0.1396568 c -0.0379,-0.384071 -0.48754,-0.5624182 -0.908172,-0.3602087 -0.252566,0.1214157 -0.502329,0.4851694 -0.583431,0.849704 -0.02168,0.097429 -0.04958,0.1704797 -0.06444,0.1686997 -0.01442,-0.00173 -0.07352,-0.01344 -0.131346,-0.02603 z m -0.749858,-0.152063 c 0,-0.353897 -0.103454,-0.8149893 -0.308828,-1.3764406 -0.39857,-1.0896087 -0.328644,-1.8173604 0.259043,-2.6959613 0.214359,-0.3204706 0.197506,-0.3163154 0.358232,-0.088322 0.606661,0.8605568 0.722716,1.6829239 0.371319,2.6311771 -0.242682,0.654886 -0.317285,0.9406346 -0.348431,1.3345814 -0.02382,0.3013415 -0.0133,0.2849974 -0.18357,0.2849974 H 25.262171 Z M 23.552187,3.293824 c -0.314657,-0.1349268 -0.653836,-0.1566463 -0.911992,-0.0584 -0.06897,0.026248 -0.128619,0.047728 -0.132555,0.047734 -0.01835,2.95e-5 0.193433,-0.2804995 0.331724,-0.4394049 0.251625,-0.2891339 0.595025,-0.564544 0.970448,-0.7783083 l 0.109426,-0.062307 -0.07825,0.1099206 c -0.254912,0.358083 -0.324331,0.7447646 -0.199065,1.108855 0.02453,0.07131 0.04259,0.1287612 0.04014,0.1276685 -0.0025,-0.00109 -0.0609,-0.026184 -0.129871,-0.055759 z m 3.649431,-0.07191 C 27.325323,2.8623596 27.259797,2.4851802 27.01045,2.121512 l -0.06957,-0.1014676 0.135337,0.075985 c 0.389085,0.2184524 0.799557,0.5757122 1.084929,0.9442812 0.187603,0.2422967 0.18921,0.25101 0.03639,0.1972982 -0.26951,-0.094725 -0.61507,-0.072387 -0.903237,0.058388 -0.06735,0.030565 -0.125792,0.055572 -0.129871,0.055572 -0.0041,0 0.01266,-0.058345 0.03719,-0.1296548 z"
	 id="path15" />
  <path
	 style="fill:#82b6f0"
	 d="M 3.6023674,9.8075491 V 9.5831902 l 2.8556742,-0.016043 c 1.5706208,-0.00882 8.4268034,-0.015104 15.2359624,-0.013956 13.392905,0.00226 12.503747,0.0099 12.916083,-0.1110205 1.198145,-0.3513666 1.904363,-1.2956345 2.01868,-2.6991332 l 0.01439,-0.1766984 h 0.214653 0.214653 l -1.35e-4,0.1880983 c -0.0011,1.5376612 -1.089134,2.8832175 -2.576507,3.1863247 -0.441797,0.090032 -0.51672,0.090461 -15.885491,0.090807 l -15.0079646,3.38e-4 z"
	 id="path14" />
  <path
	 style="fill:#273648"
	 d="M 2.9411734,9.9935677 C 1.5634971,9.8512598 0.36267133,8.7512218 0.08181145,7.3741979 -0.03501308,6.8014206 -0.03640601,3.2255307 0.07997362,2.6561757 0.35148481,1.3278826 1.3927649,0.31605603 2.758775,0.05314656 3.0130235,0.00421257 33.249593,-0.02659814 33.961306,0.02135155 c 1.521619,0.10251485 2.700808,1.12121255 3.04993,2.63482415 0.04542,0.1969388 0.04765,0.2793023 0.05529,2.0462812 l 0.008,1.8410831 H 36.84752 36.620562 l -0.01494,0.1994982 C 36.504919,8.0881106 35.806312,9.042907 34.659584,9.4027223 34.209213,9.5440376 35.153875,9.5337485 22.925193,9.5305315 16.793188,9.5289184 9.9318752,9.534952 7.6778305,9.5439395 l -4.0982629,0.016341 v 0.2244139 0.2244136 l -0.2792975,-0.0036 C 3.1466565,10.003453 2.985063,9.9981013 2.9411734,9.9935677 Z M 25.695368,8.5266047 c 0.144208,-0.01261 0.294922,-0.028937 0.334918,-0.036284 l 0.07272,-0.013356 -0.125549,-0.1516198 c -0.203914,-0.246258 -0.330203,-0.5536145 -0.362078,-0.881213 -0.0073,-0.075239 -0.0186,-0.1804034 -0.02506,-0.2336979 L 25.578569,7.113535 H 25.412387 25.2462 l -0.01422,0.1994982 c -0.02906,0.4076313 -0.16709,0.774587 -0.382092,1.0158142 -0.148682,0.1668177 -0.159706,0.1591914 0.286888,0.1984766 0.272683,0.023987 0.2761,0.023983 0.558595,-7.191e-4 z M 4.9469252,8.2617678 C 5.671032,8.101122 6.2032421,7.406902 6.2037169,6.6223966 6.2040682,6.0421141 6.1923523,6.0226015 5.0615542,4.7201466 4.0242213,3.5253449 3.9946365,3.474547 4.1570326,3.167057 4.4199214,2.6692884 4.9931548,2.9405286 4.9931548,3.5626898 c 0,0.3098781 0.00656,0.3132747 0.6047879,0.3132747 0.4582899,0 0.4650822,-7.095e-4 0.5282305,-0.055174 l 0.063971,-0.055174 -0.00178,-0.315323 C 6.1838305,2.6486889 5.7447536,2.0217704 5.0435677,1.8157457 3.7759224,1.4432822 2.6162625,2.5620175 2.9413065,3.8438176 3.0390408,4.2292295 3.0647148,4.2648851 4.1039629,5.458495 4.9179225,6.3933538 5.0158018,6.5221378 5.0152678,6.657539 5.0137556,7.0410521 4.4844965,7.2602234 4.2248098,6.9848753 4.1392801,6.8941874 4.1114186,6.8097499 4.0791845,6.54354 4.0283704,6.1238849 4.0422891,6.1331438 3.4622449,6.1331438 H 3.0130714 l -0.072765,0.061228 -0.072765,0.061228 0.010725,0.3548684 c 0.034949,1.156354 0.9624383,1.8967192 2.0686588,1.6512996 z M 27.029618,8.155776 C 27.142222,8.098869 27.306173,8.0054629 27.393952,7.9482064 L 27.553551,7.8441038 27.324643,7.843616 c -0.558527,-0.00119 -1.12768,-0.3942311 -1.12768,-0.7787441 0,-0.04777 -0.02194,-0.05127 -0.136799,-0.021822 -0.04389,0.011253 -0.10649,0.026399 -0.139112,0.033657 -0.160526,0.035717 0.07335,0.6836976 0.347524,0.9628379 0.29358,0.2989015 0.374982,0.3113338 0.761042,0.1162312 z M 8.7209211,8.2438086 C 9.4353317,8.0456406 9.8814078,7.4565652 9.930753,6.6461391 9.9612508,6.1452555 9.9473166,6.1331438 9.3405624,6.1331438 H 8.8873596 l -0.077519,0.077519 -0.077519,0.077519 -5.007e-4,0.2245779 C 8.7304557,7.1247711 8.1048245,7.3529026 7.8417858,6.8373043 7.7803319,6.7168447 7.7720228,3.3655511 7.8328173,3.2200493 8.0457803,2.7103573 8.7104988,2.8915084 8.7273495,3.46383 c 0.012601,0.4279788 -0.010984,0.4121345 0.6134652,0.4121345 0.631529,0 0.6332877,-0.00172 0.5835529,-0.5693349 C 9.7541046,1.3634323 6.9410585,1.18858 6.6124977,3.1007716 c -0.047353,0.2755919 -0.019743,3.8551496 0.03104,4.0241631 0.2633256,0.8763917 1.1771642,1.368583 2.0773834,1.1188739 z m 4.0355639,-0.02292 c 0.55159,-0.187247 0.946506,-0.6113338 1.098451,-1.179592 0.04742,-0.177361 0.07438,-3.4136835 0.03172,-3.8081115 C 13.70564,1.559595 11.439337,1.1800444 10.713596,2.701775 10.552801,3.0389296 10.553828,3.022727 10.561164,5.107153 l 0.0065,1.8581829 0.06212,0.1823984 c 0.299403,0.879169 1.264092,1.3659693 2.126665,1.0731543 z M 12.07562,7.0801374 c -0.11239,-0.040066 -0.213962,-0.1355285 -0.267701,-0.2516 -0.05963,-0.1288039 -0.06698,-3.4671852 -0.0079,-3.6084881 0.144097,-0.3448709 0.600585,-0.3880417 0.818692,-0.077425 l 0.06941,0.098852 0.0064,1.7365308 c 0.007,1.9196286 0.01195,1.848396 -0.137821,1.9935595 -0.13142,0.1272999 -0.31335,0.1683647 -0.48108,0.1085708 z m 4.754427,1.1448903 c 0.515445,-0.167057 0.90833,-0.5588506 1.087916,-1.0848935 l 0.05967,-0.1747981 0.0064,-2.4983517 0.0064,-2.4983518 -0.04792,-0.060925 -0.04792,-0.060925 h -0.495582 c -0.391972,0 -0.504836,0.00676 -0.539841,0.032355 -0.0432,0.031585 -0.04453,0.090067 -0.05566,2.4566775 l -0.0114,2.4243221 -0.0633,0.1076931 C 16.516002,7.229851 15.981895,7.15753 15.869089,6.7514193 c -0.01466,-0.052792 -0.02296,-0.9302196 -0.02304,-2.437596 l -1.27e-4,-2.3551148 -0.05596,-0.055963 c -0.07967,-0.079665 -0.994868,-0.088534 -1.078678,-0.010454 -0.07665,0.071408 -0.07643,0.06314 -0.06815,2.5992662 0.0088,2.6922132 -0.0018,2.5185644 0.176427,2.8841736 0.35387,0.7257798 1.238577,1.099496 2.010556,0.8492953 z m 7.49301,0.00423 c 0.282786,-0.1621682 0.510092,-0.4840237 0.596554,-0.8446966 0.06757,-0.281845 0.06439,-0.3079326 -0.03934,-0.3232641 -0.04703,-0.00695 -0.118351,-0.019745 -0.158504,-0.028433 -0.06676,-0.014444 -0.07435,-0.010207 -0.08876,0.049535 -0.109635,0.4545815 -0.530067,0.7473779 -1.075073,0.7487014 -0.141047,3.426e-4 -0.256338,0.00575 -0.256204,0.012023 7.73e-4,0.035979 0.591597,0.371194 0.774849,0.4396248 0.07093,0.026486 0.128984,0.013887 0.246475,-0.05349 z m -3.691908,-0.058517 c 0.120411,-0.084339 0.116663,0.00117 0.116663,-2.6621829 V 3.0357333 l 0.466924,-0.00738 0.466924,-0.00738 0.06317,-0.063201 0.06317,-0.063201 V 2.4257228 1.9568744 l -0.06397,-0.055046 -0.06397,-0.055046 h -1.527814 c -1.886139,0 -1.68265,-0.069535 -1.683689,0.575335 l -7.25e-4,0.4499362 0.06648,0.074459 0.06648,0.074459 0.469312,0.007 0.469311,0.007 v 2.4850055 c 0,2.718882 -0.007,2.5771502 0.131386,2.6522487 0.09576,0.051959 0.885781,0.050734 0.96034,-0.00149 z m 9.735837,-0.040453 0.04794,-0.043433 V 5.011384 1.9359095 l -0.05596,-0.055963 c -0.07847,-0.07847 -1.005636,-0.088755 -1.082383,-0.012007 -0.07149,0.071487 -0.07238,0.1155352 -0.06537,3.224091 l 0.0067,2.9830497 0.06541,0.056257 0.06541,0.056257 0.485149,-0.00693 c 0.439407,-0.00628 0.489669,-0.01103 0.533089,-0.050368 z m 2.932113,0.00133 c 0.583551,-0.166966 1.022128,-0.6050831 1.190338,-1.1890898 0.04908,-0.170394 0.07446,-3.3834571 0.02942,-3.7246947 C 34.435497,2.5862149 34.059642,2.1238117 33.453248,1.906846 L 33.253494,1.835375 32.282958,1.828355 c -0.937107,-0.00678 -0.972445,-0.00547 -1.02599,0.037883 l -0.05545,0.044903 -0.0059,3.0696305 c -0.0062,3.2059105 -0.0081,3.1397992 0.09293,3.1822252 0.09674,0.040607 1.8549,0.013168 2.010592,-0.031379 z M 32.398507,5.0045541 V 3.0095724 h 0.297306 c 0.386411,0 0.509491,0.056998 0.602198,0.2788763 0.06073,0.1453494 0.05246,3.3144542 -0.009,3.4348567 -0.108823,0.2133106 -0.252584,0.2759142 -0.634037,0.2761033 l -0.256498,1.271e-4 z M 27.519351,7.4773085 C 27.947184,7.4095294 28.3142,7.0862251 28.577553,6.545139 28.702306,6.288819 28.700019,6.2818847 28.53504,6.416262 27.954,6.8895256 27.153363,6.7859367 26.658514,6.1734711 26.511715,5.9917816 26.509832,5.9927268 26.470903,6.2676096 c -0.02007,0.1416971 -0.01822,0.1531924 0.03336,0.2072738 0.11439,0.119956 0.11718,0.2410962 0.0082,0.3574142 -0.05506,0.058785 -0.04518,0.1068201 0.05446,0.2647093 0.196889,0.312006 0.533947,0.4465956 0.952406,0.3803016 z M 23.864829,7.429117 c 0.309301,-0.1153591 0.566043,-0.4860004 0.436827,-0.6306186 -0.09204,-0.1030098 -0.07668,-0.2517065 0.03562,-0.3449099 0.0423,-0.035105 0.04528,-0.1283583 0.0098,-0.3052422 -0.03047,-0.1517425 -0.03649,-0.1543836 -0.109027,-0.047879 -0.443062,0.6505213 -1.340266,0.7957358 -1.933089,0.3128747 -0.160143,-0.1304381 -0.165845,-0.1190664 -0.05585,0.1113872 0.365087,0.7649318 1.01473,1.1285543 1.615767,0.9043876 z m 2.086522,-0.625324 c 0.47406,-0.089963 0.475633,-0.1942427 0.0045,-0.2956614 -0.569644,-0.1226142 -1.693255,0.043192 -1.38232,0.2039821 0.261659,0.1353094 0.917871,0.178972 1.377862,0.091679 z M 23.520753,6.2917909 C 23.870406,6.1714927 24.238736,5.7955748 24.116482,5.6837892 23.733386,5.3334965 23.250945,5.729748 23.603553,6.1050819 l 0.04919,0.05236 -0.135777,-0.01417 C 22.783029,6.0666757 22.320998,5.6178107 22.320998,4.981384 c 0,-0.7849604 0.790706,-1.2846361 1.613085,-1.0193672 0.17332,0.055906 0.177549,0.039344 0.02421,-0.094795 -0.839192,-0.7341048 -2.011294,-0.09845 -2.013079,1.091733 -0.0014,0.9464729 0.77918,1.6068247 1.575541,1.3328364 z m 4.365983,0.046579 c 0.581258,-0.1077798 1.010263,-0.6945571 1.008518,-1.379415 -0.003,-1.1947168 -1.19892,-1.8278528 -2.028851,-1.0741397 -0.135971,0.1234836 -0.124253,0.1421438 0.05071,0.080761 0.782568,-0.2745451 1.60643,0.2453259 1.605155,1.01288 -0.0011,0.6363688 -0.460465,1.0853255 -1.195753,1.1685503 l -0.135834,0.015375 0.06114,-0.072655 c 0.318649,-0.378693 -0.206859,-0.7602309 -0.539895,-0.3919831 -0.220814,0.2441613 0.675895,0.733138 1.174812,0.6406264 z m -3.014765,-0.084783 0.0772,-0.013415 -0.01461,-0.1901102 c -0.06157,-0.8010141 -0.372085,-1.5180482 -0.743012,-1.7157501 -0.913697,-0.4869951 -1.868957,0.2945462 -1.37994,1.1289905 0.12216,0.2084497 0.373455,0.3788721 0.344392,0.2335585 -0.05574,-0.2786811 0.274669,-0.5531401 0.614742,-0.5106508 0.416337,0.052018 0.732753,0.4352553 0.864003,1.0464643 0.01285,0.059855 0.02015,0.064031 0.08703,0.049829 0.04015,-0.00853 0.107742,-0.021538 0.1502,-0.028916 z m 1.364532,-0.1564293 c 0.130808,-0.5060071 0.423482,-0.8353447 0.801529,-0.9019363 0.342318,-0.060298 0.658463,0.1781213 0.637497,0.4807665 -0.0093,0.134629 -0.0082,0.1351389 0.109645,0.049771 0.620491,-0.4494813 0.431545,-1.3668962 -0.310503,-1.5076226 -0.904925,-0.1716156 -1.43818,0.4708317 -1.582332,1.9063388 l -0.01172,0.1167298 0.118273,0.022774 c 0.06505,0.012525 0.133748,0.024121 0.152662,0.025769 0.02476,0.00216 0.04855,-0.051779 0.08495,-0.1925893 z m -0.646171,0.030286 c 0.0061,-0.040755 0.02249,-0.1818283 0.03649,-0.3134971 0.03621,-0.3404012 0.09186,-0.5566307 0.265382,-1.0311607 0.437041,-1.1951719 0.3324,-2.0781018 -0.349211,-2.946545 -0.125254,-0.1595856 -0.118475,-0.1609757 -0.280476,0.057516 -0.641953,0.8658015 -0.74381,1.7097257 -0.339577,2.8135351 0.213983,0.5843093 0.316427,1.035112 0.316427,1.392436 V 6.201543 h 0.169965 0.169965 z M 24.307153,3.7015675 C 24.148254,3.1008383 24.422642,2.337152 24.981308,1.8252363 25.159493,1.6619627 25.15685,1.6456801 24.962735,1.7108168 c -0.85036,0.2853452 -1.209732,1.0629977 -0.836411,1.8099278 0.128408,0.256915 0.227046,0.3555494 0.180829,0.1808229 z m 2.316626,-0.036501 c 0.488431,-0.7828547 0.189012,-1.6090352 -0.70083,-1.9337874 -0.255008,-0.093066 -0.256946,-0.089018 -0.05256,0.1098041 0.552366,0.5373261 0.782612,1.1852915 0.660281,1.858183 -0.02568,0.141247 -0.01358,0.1368043 0.09311,-0.0342 z M 23.722128,3.3572692 C 23.534561,2.9255733 23.573525,2.5556397 23.849383,2.1490641 23.989603,1.9424006 23.990207,1.9461809 23.829875,2.0271165 23.44268,2.2225719 22.963012,2.6260114 22.675341,2.9981725 22.52545,3.1920871 22.413632,3.364386 22.448276,3.3480539 c 0.428604,-0.2020552 0.767553,-0.2051368 1.141847,-0.010381 0.132207,0.068791 0.154839,0.072151 0.132005,0.019596 z m 3.617591,-0.049258 c 0.350647,-0.1393181 0.641965,-0.143949 0.924297,-0.014693 0.486569,0.2227583 -0.57555,-0.8861545 -1.165321,-1.2166626 -0.249397,-0.1397624 -0.24791,-0.1410697 -0.09662,0.084959 0.26711,0.3990649 0.30335,0.7680537 0.117819,1.1996128 -0.0144,0.033494 -0.01119,0.040546 0.0136,0.029841 0.01785,-0.00771 0.110653,-0.045085 0.206223,-0.083057 z"
	 id="path13" />
</g>
</svg>
